<?xml version="1.0" encoding="utf-8"?>

<!-- Uploaded to: SVG Repo, www.svgrepo.com, Generator: SVG Repo Mixer Tools -->
<svg version="1.1" id="Icons" xmlns="http://www.w3.org/2000/svg" xmlns:xlink="http://www.w3.org/1999/xlink" 
	 viewBox="0 0 32 32" xml:space="preserve">
<style type="text/css">
	.st0{fill:none;stroke:#000000;stroke-width:2;stroke-linecap:round;stroke-linejoin:round;stroke-miterlimit:10;}
</style>
<g>
	<path d="M23,11c2.2,0,4-1.8,4-4s-1.8-4-4-4s-4,1.8-4,4S20.8,11,23,11z"/>
	<path d="M30.8,12.4c-0.3-0.4-1-0.5-1.4-0.2l-2.9,2.3c-0.8,0.7-2,0.6-2.7-0.2l-7.9-7.9c-1.6-1.6-4.1-1.6-5.7,0L7.3,9.3
		c-0.4,0.4-0.4,1,0,1.4s1,0.4,1.4,0l2.8-2.8c0.8-0.8,2.1-0.8,2.9,0l1.6,1.6L11.6,14c-1,1-1.4,2.3-1.1,3.7c0.2,1.1,0.9,2,1.8,2.6
		l-1.6,1.6c-0.4,0.4-1,0.4-1.4,0l-3.6-3.6c-0.4-0.4-1-0.4-1.4,0s-0.4,1,0,1.4l3.6,3.6c0.6,0.6,1.3,0.9,2.1,0.9s1.6-0.3,2.1-0.9
		l2.1-2.1l2.5,1c0.7,0.3,1.2,1,1.2,1.8v6c0,0.6,0.4,1,1,1s1-0.4,1-1v-6c0-1.6-1-3.1-2.5-3.7l-1.7-0.7l5.2-5.2l1.4,1.4
		c0.8,0.8,1.8,1.2,2.9,1.2c0.9,0,1.8-0.3,2.5-0.9l2.9-2.3C31.1,13.4,31.1,12.8,30.8,12.4z"/>
</g>
</svg>